HIERARCHY
ROOT Hips
{
	OFFSET 0.000000 87.230942 0.000000
	CHANNELS 6 Xposition Yposition Zposition Xrotation Yrotation Zrotation
	JOINT Pelvis
	{
		OFFSET 0.000000 0.000000 0.000000
		CHANNELS 3 Xrotation Yrotation Zrotation
		JOINT LeftUpLeg
		{
			OFFSET 12.017000 -9.376404 -2.439400
			CHANNELS 3 Xrotation Yrotation Zrotation
			JOINT LeftLeg
			{
				OFFSET -0.007312 -32.846973 2.110600
				CHANNELS 3 Xrotation Yrotation Zrotation
				JOINT LeftFoot
				{
					OFFSET 0.007312 -32.065170 -0.570400
					CHANNELS 3 Xrotation Yrotation Zrotation
					JOINT LeftToeBase
					{
						OFFSET 0.728300 -11.045900 13.180700
						CHANNELS 3 Xrotation Yrotation Zrotation
						End Site
						{
							OFFSET 0.000000 17.212589 0.000000
						}
					}
				}
				JOINT LeftPantLeg
				{
					OFFSET 0.002788 -16.709013 -3.143600
					CHANNELS 3 Xrotation Yrotation Zrotation
					End Site
					{
						OFFSET -0.605125 24.528742 0.000000
					}
				}
			}
			JOINT Left_Butt
			{
				OFFSET -6.630234 1.326584 -3.183700
				CHANNELS 3 Xrotation Yrotation Zrotation
				End Site
				{
					OFFSET -0.498041 20.188049 0.000000
				}
			}
		}
		JOINT RightUpLeg
		{
			OFFSET -11.717000 -9.376404 -2.439400
			CHANNELS 3 Xrotation Yrotation Zrotation
			JOINT RightLeg
			{
				OFFSET -0.003241 -32.846912 2.110600
				CHANNELS 3 Xrotation Yrotation Zrotation
				JOINT RightFoot
				{
					OFFSET 0.003241 -32.065136 -0.570500
					CHANNELS 3 Xrotation Yrotation Zrotation
					JOINT RightToeBase
					{
						OFFSET -0.728300 -11.045901 13.180700
						CHANNELS 3 Xrotation Yrotation Zrotation
						End Site
						{
							OFFSET 0.000000 17.212593 0.000000
						}
					}
				}
				JOINT RightPantLeg
				{
					OFFSET 0.008142 -16.708982 -3.143700
					CHANNELS 3 Xrotation Yrotation Zrotation
					End Site
					{
						OFFSET 0.605088 24.528715 0.000000
					}
				}
			}
			JOINT Right_Butt
			{
				OFFSET 6.630732 1.326584 -3.183700
				CHANNELS 3 Xrotation Yrotation Zrotation
				End Site
				{
					OFFSET 0.498015 20.188240 0.000000
				}
			}
		}
	}
	JOINT Spine
	{
		OFFSET -0.062400 7.848404 3.918300
		CHANNELS 3 Xrotation Yrotation Zrotation
		JOINT Spine1
		{
			OFFSET -0.072800 11.422302 0.713400
			CHANNELS 3 Xrotation Yrotation Zrotation
			JOINT Spine2
			{
				OFFSET -0.083200 13.054001 -1.931600
				CHANNELS 3 Xrotation Yrotation Zrotation
				JOINT Neck
				{
					OFFSET -0.092200 14.121796 -5.138800
					CHANNELS 3 Xrotation Yrotation Zrotation
					JOINT Head
					{
						OFFSET 0.000200 10.447403 -0.842000
						CHANNELS 3 Xrotation Yrotation Zrotation
						JOINT Visor
						{
							OFFSET 0.457100 25.671204 16.550400
							CHANNELS 3 Xrotation Yrotation Zrotation
							End Site
							{
								OFFSET 0.000000 26.061493 0.000000
							}
						}
						JOINT HairMidA
						{
							OFFSET 0.459400 31.585403 8.437400
							CHANNELS 3 Xrotation Yrotation Zrotation
							End Site
							{
								OFFSET 0.000000 26.061493 0.000000
							}
						}
						JOINT HairMidB
						{
							OFFSET 0.464000 33.309204 -8.389700
							CHANNELS 3 Xrotation Yrotation Zrotation
							End Site
							{
								OFFSET 0.000000 26.061493 0.000000
							}
						}
						JOINT HairMidC
						{
							OFFSET 0.466600 27.991196 -17.375099
							CHANNELS 3 Xrotation Yrotation Zrotation
							End Site
							{
								OFFSET 0.000000 26.061493 0.000000
							}
						}
						JOINT HairMidD
						{
							OFFSET 0.467700 17.888092 -21.169500
							CHANNELS 3 Xrotation Yrotation Zrotation
							End Site
							{
								OFFSET 0.000000 26.061493 0.000000
							}
						}
						JOINT HairMidE
						{
							OFFSET 5.325700 3.514603 -14.369699
							CHANNELS 3 Xrotation Yrotation Zrotation
							End Site
							{
								OFFSET 0.000000 26.061493 0.000000
							}
						}
						JOINT HairMidF
						{
							OFFSET -4.394100 3.514603 -14.372400
							CHANNELS 3 Xrotation Yrotation Zrotation
							End Site
							{
								OFFSET 0.000000 26.061493 0.000000
							}
						}
						JOINT HairLeftA
						{
							OFFSET 15.319900 25.746506 2.623300
							CHANNELS 3 Xrotation Yrotation Zrotation
							End Site
							{
								OFFSET 0.000000 26.061493 0.000000
							}
						}
						JOINT HairLeftB
						{
							OFFSET 12.619500 29.289398 -8.731499
							CHANNELS 3 Xrotation Yrotation Zrotation
							End Site
							{
								OFFSET 0.000000 26.061493 0.000000
							}
						}
						JOINT HairLeftC
						{
							OFFSET 15.714800 15.959900 2.909800
							CHANNELS 3 Xrotation Yrotation Zrotation
							End Site
							{
								OFFSET 0.000000 26.061493 0.000000
							}
						}
						JOINT HairLeftD
						{
							OFFSET 16.101700 18.437408 -7.553200
							CHANNELS 3 Xrotation Yrotation Zrotation
							End Site
							{
								OFFSET 0.000000 26.061493 0.000000
							}
						}
						JOINT HairLeftE
						{
							OFFSET 9.731900 17.915009 -18.316799
							CHANNELS 3 Xrotation Yrotation Zrotation
							End Site
							{
								OFFSET 0.000000 26.061493 0.000000
							}
						}
						JOINT HairLeftF
						{
							OFFSET 11.204300 4.953598 -9.668100
							CHANNELS 3 Xrotation Yrotation Zrotation
							End Site
							{
								OFFSET 0.000000 26.061493 0.000000
							}
						}
						JOINT HairRightA
						{
							OFFSET -14.397900 25.746307 2.615100
							CHANNELS 3 Xrotation Yrotation Zrotation
							End Site
							{
								OFFSET 0.000000 26.061493 0.000000
							}
						}
						JOINT HairRightB
						{
							OFFSET -11.691200 29.289200 -8.738199
							CHANNELS 3 Xrotation Yrotation Zrotation
							End Site
							{
								OFFSET 0.000000 26.061493 0.000000
							}
						}
						JOINT HairRightC
						{
							OFFSET -14.792900 15.959702 2.901400
							CHANNELS 3 Xrotation Yrotation Zrotation
							End Site
							{
								OFFSET 0.000000 26.061493 0.000000
							}
						}
						JOINT HairRightD
						{
							OFFSET -15.174000 18.437195 -7.561900
							CHANNELS 3 Xrotation Yrotation Zrotation
							End Site
							{
								OFFSET 0.000000 26.061493 0.000000
							}
						}
						JOINT HairRightE
						{
							OFFSET -8.798200 17.914902 -18.322001
							CHANNELS 3 Xrotation Yrotation Zrotation
							End Site
							{
								OFFSET 0.000000 26.061493 0.000000
							}
						}
						JOINT HairRightF
						{
							OFFSET -10.275200 4.953506 -9.674099
							CHANNELS 3 Xrotation Yrotation Zrotation
							End Site
							{
								OFFSET 0.000000 26.061493 0.000000
							}
						}
					}
				}
				JOINT LeftShoulder
				{
					OFFSET 5.133500 7.341202 -1.867600
					CHANNELS 3 Xrotation Yrotation Zrotation
					JOINT LeftArm
					{
						OFFSET 8.072663 0.936867 -2.176600
						CHANNELS 3 Xrotation Yrotation Zrotation
						JOINT LeftForeArm
						{
							OFFSET 31.271999 0.000000 0.000000
							CHANNELS 3 Xrotation Yrotation Zrotation
							JOINT LeftHand
							{
								OFFSET 31.771030 0.000000 0.000000
								CHANNELS 3 Xrotation Yrotation Zrotation
								JOINT LeftHandThumb1
								{
									OFFSET 2.886520 -2.557846 4.416640
									CHANNELS 3 Xrotation Yrotation Zrotation
									JOINT LeftHandThumb2
									{
										OFFSET 2.371025 -1.368912 1.368911
										CHANNELS 3 Xrotation Yrotation Zrotation
										JOINT LeftHandThumb3
										{
											OFFSET 2.243378 -1.295212 1.295213
											CHANNELS 3 Xrotation Yrotation Zrotation
											End Site
											{
												OFFSET -0.332611 2.876945 0.020015
											}
										}
									}
								}
								JOINT LeftHandIndex1
								{
									OFFSET 8.568985 -0.641945 3.119977
									CHANNELS 3 Xrotation Yrotation Zrotation
									JOINT LeftHandIndex2
									{
										OFFSET 3.348503 0.000000 0.000000
										CHANNELS 3 Xrotation Yrotation Zrotation
										JOINT LeftHandIndex3
										{
											OFFSET 3.314552 0.000000 0.000000
											CHANNELS 3 Xrotation Yrotation Zrotation
											End Site
											{
												OFFSET -1.032898 3.075485 0.678796
											}
										}
									}
								}
								JOINT LeftHandMiddle1
								{
									OFFSET 8.124603 0.000000 0.000000
									CHANNELS 3 Xrotation Yrotation Zrotation
									JOINT LeftHandMiddle2
									{
										OFFSET 4.166275 0.000000 0.000000
										CHANNELS 3 Xrotation Yrotation Zrotation
										JOINT LeftHandMiddle3
										{
											OFFSET 3.018135 0.000000 0.000000
											CHANNELS 3 Xrotation Yrotation Zrotation
											End Site
											{
												OFFSET -1.032700 2.767982 0.617226
											}
										}
									}
								}
								JOINT LeftHandRing1
								{
									OFFSET 8.571686 -0.031357 -2.884048
									CHANNELS 3 Xrotation Yrotation Zrotation
									JOINT LeftHandRing2
									{
										OFFSET 3.671181 0.000000 0.000000
										CHANNELS 3 Xrotation Yrotation Zrotation
										JOINT LeftHandRing3
										{
											OFFSET 2.728851 0.000000 0.000000
											CHANNELS 3 Xrotation Yrotation Zrotation
											End Site
											{
												OFFSET -0.815796 2.539223 0.577389
											}
										}
									}
								}
								JOINT LeftHandPinky1
								{
									OFFSET 7.854515 -0.675232 -5.213020
									CHANNELS 3 Xrotation Yrotation Zrotation
									JOINT LeftHandPinky2
									{
										OFFSET 3.068596 0.000000 0.000000
										CHANNELS 3 Xrotation Yrotation Zrotation
										JOINT LeftHandPinky3
										{
											OFFSET 2.396042 0.000000 0.000000
											CHANNELS 3 Xrotation Yrotation Zrotation
											End Site
											{
												OFFSET -0.524597 2.267998 0.567429
											}
										}
									}
								}
							}
							JOINT LeftSleeve
							{
								OFFSET 19.684509 -0.200119 0.476146
								CHANNELS 3 Xrotation Yrotation Zrotation
								End Site
								{
									OFFSET -0.031017 25.731133 -0.002868
								}
							}
						}
					}
				}
				JOINT RightShoulder
				{
					OFFSET -4.395900 7.341202 -1.870200
					CHANNELS 3 Xrotation Yrotation Zrotation
					JOINT RightArm
					{
						OFFSET -8.071453 0.936867 -2.181100
						CHANNELS 3 Xrotation Yrotation Zrotation
						JOINT RightForeArm
						{
							OFFSET -31.272011 0.000000 0.000000
							CHANNELS 3 Xrotation Yrotation Zrotation
							JOINT RightHand
							{
								OFFSET -31.771019 0.000000 0.000000
								CHANNELS 3 Xrotation Yrotation Zrotation
								JOINT RightHandThumb1
								{
									OFFSET -2.886520 -2.557808 4.416626
									CHANNELS 3 Xrotation Yrotation Zrotation
									JOINT RightHandThumb2
									{
										OFFSET -2.371056 -1.368927 1.368928
										CHANNELS 3 Xrotation Yrotation Zrotation
										JOINT RightHandThumb3
										{
											OFFSET -2.243362 -1.295204 1.295206
											CHANNELS 3 Xrotation Yrotation Zrotation
											End Site
											{
												OFFSET 0.332642 2.876938 0.020047
											}
										}
									}
								}
								JOINT RightHandIndex1
								{
									OFFSET -8.568993 -0.641953 3.120017
									CHANNELS 3 Xrotation Yrotation Zrotation
									JOINT RightHandIndex2
									{
										OFFSET -3.348518 0.000000 0.000000
										CHANNELS 3 Xrotation Yrotation Zrotation
										JOINT RightHandIndex3
										{
											OFFSET -3.314552 0.000000 0.000000
											CHANNELS 3 Xrotation Yrotation Zrotation
											End Site
											{
												OFFSET 1.032898 3.075478 0.678804
											}
										}
									}
								}
								JOINT RightHandMiddle1
								{
									OFFSET -8.124588 0.000000 0.000000
									CHANNELS 3 Xrotation Yrotation Zrotation
									JOINT RightHandMiddle2
									{
										OFFSET -4.166275 0.000000 0.000000
										CHANNELS 3 Xrotation Yrotation Zrotation
										JOINT RightHandMiddle3
										{
											OFFSET -3.018097 0.000000 0.000000
											CHANNELS 3 Xrotation Yrotation Zrotation
											End Site
											{
												OFFSET 1.032700 2.767937 0.617197
											}
										}
									}
								}
								JOINT RightHandRing1
								{
									OFFSET -8.571747 -0.031349 -2.884061
									CHANNELS 3 Xrotation Yrotation Zrotation
									JOINT RightHandRing2
									{
										OFFSET -3.671204 0.000000 0.000000
										CHANNELS 3 Xrotation Yrotation Zrotation
										JOINT RightHandRing3
										{
											OFFSET -2.728874 0.000000 0.000000
											CHANNELS 3 Xrotation Yrotation Zrotation
											End Site
											{
												OFFSET 0.815804 2.539261 0.577413
											}
										}
									}
								}
								JOINT RightHandPinky1
								{
									OFFSET -7.854561 -0.675247 -5.212970
									CHANNELS 3 Xrotation Yrotation Zrotation
									JOINT RightHandPinky2
									{
										OFFSET -3.068550 0.000000 0.000000
										CHANNELS 3 Xrotation Yrotation Zrotation
										JOINT RightHandPinky3
										{
											OFFSET -2.395981 0.000000 0.000000
											CHANNELS 3 Xrotation Yrotation Zrotation
											End Site
											{
												OFFSET 0.524605 2.267952 0.567413
											}
										}
									}
								}
							}
							JOINT RightSleeve
							{
								OFFSET -19.684753 -0.200165 0.476065
								CHANNELS 3 Xrotation Yrotation Zrotation
								End Site
								{
									OFFSET 0.031342 25.731255 -0.002917
								}
							}
						}
					}
				}
				JOINT Hood
				{
					OFFSET 0.369700 14.447800 -5.317800
					CHANNELS 3 Xrotation Yrotation Zrotation
					JOINT Hood1
					{
						OFFSET 0.001700 -5.553802 -5.895100
						CHANNELS 3 Xrotation Yrotation Zrotation
						JOINT Hood2
						{
							OFFSET -0.000200 -8.380501 0.763600
							CHANNELS 3 Xrotation Yrotation Zrotation
							End Site
							{
								OFFSET 0.000000 8.415215 0.000000
							}
						}
					}
				}
				JOINT Left_Breast
				{
					OFFSET 5.682500 3.120102 3.188800
					CHANNELS 3 Xrotation Yrotation Zrotation
					End Site
					{
						OFFSET 0.000000 10.528564 0.000000
					}
				}
				JOINT Right_Breast
				{
					OFFSET -4.947600 3.120102 3.185900
					CHANNELS 3 Xrotation Yrotation Zrotation
					End Site
					{
						OFFSET 0.000000 10.528564 0.000000
					}
				}
				JOINT Whistle
				{
					OFFSET 0.368200 11.471298 0.095400
					CHANNELS 3 Xrotation Yrotation Zrotation
					JOINT Whistle1
					{
						OFFSET -0.002000 -6.349899 7.479800
						CHANNELS 3 Xrotation Yrotation Zrotation
						JOINT Whistle2
						{
							OFFSET -0.001300 -8.217598 4.717600
							CHANNELS 3 Xrotation Yrotation Zrotation
							End Site
							{
								OFFSET 0.000000 9.475479 0.000000
							}
						}
					}
				}
			}
		}
		JOINT Belly
		{
			OFFSET 0.212400 1.593002 3.163700
			CHANNELS 3 Xrotation Yrotation Zrotation
			End Site
			{
				OFFSET 0.000000 7.496635 0.000000
			}
		}
	}
	JOINT FitGrandmaFacialAnim_Joint
	{
		OFFSET 1.150000 -86.211197 -1.220100
		CHANNELS 3 Xrotation Yrotation Zrotation
		End Site
		{
			OFFSET 0.000000 31.666618 0.000000
		}
	}
}
MOTION
Frames: 4
Frame Time: 0.016667
-0.500820 69.825058 2.239076 0.025214 -7.649598 -14.837642 -0.000000 0.000000 -0.000000 -59.707827 12.818772 3.619124 109.484982 11.720454 0.518246 -0.457684 -0.627972 17.998279 -0.000004 0.000000 0.000000 -0.000004 0.000000 -0.000000 0.000002 -0.000000 -0.000001 -26.103409 4.379367 -3.194224 64.067653 9.623421 0.610506 -40.462088 -1.327827 9.008173 0.000000 0.000000 -0.000001 -0.000001 0.000001 0.000001 -0.000001 0.000001 0.000002 5.623141 0.911228 -1.250666 4.651098 0.654910 1.633866 4.657231 0.491973 1.673783 0.396507 1.761069 0.948529 -15.762641 26.254655 5.119161 0.000001 -0.000001 0.000000 0.000001 -0.000001 0.000000 0.000001 -0.000001 0.000000 0.000001 -0.000001 0.000000 0.000001 -0.000001 0.000000 0.000001 -0.000001 0.000000 0.000001 -0.000001 0.000000 0.000001 -0.000001 0.000000 0.000001 -0.000001 0.000000 0.000001 -0.000001 0.000000 0.000001 -0.000001 0.000000 0.000001 -0.000001 0.000000 0.000001 -0.000001 0.000000 0.000001 -0.000001 0.000000 0.000001 -0.000001 0.000000 0.000001 -0.000001 0.000000 0.000001 -0.000001 0.000000 0.000001 -0.000001 0.000000 0.000001 -0.000001 0.000000 0.472292 0.823557 -6.563489 41.287049 -17.715638 -58.148720 -0.000005 -58.979831 0.000012 -18.820697 -33.533487 26.792945 5.358054 -0.141374 9.666154 3.545756 27.155809 3.560565 0.000000 -0.000002 0.000001 -1.578831 0.825919 -19.703486 0.405079 2.870985 -21.069218 0.000001 -0.000001 -0.000003 0.409498 7.162237 -25.647941 0.416490 2.993238 -22.185342 -0.000000 0.000001 -0.000003 2.386870 10.570851 -32.882351 0.471656 2.115279 -18.422009 0.000004 0.000002 0.000001 2.967917 13.388261 -36.938899 0.139969 1.667043 -18.441902 -0.000001 0.000000 0.000002 -0.000000 -0.000002 -0.000001 0.625969 0.265418 11.021708 -6.297845 23.802328 54.826915 0.000301 96.647074 -0.000402 -19.103286 24.520601 -3.410970 0.789360 -8.211540 -4.825401 0.020101 -13.361252 -9.371042 -0.000001 -0.000001 0.000000 -1.070479 -2.247354 17.231256 0.405443 -2.871960 21.079311 0.000003 -0.000001 -0.000001 0.439001 -7.256194 26.595138 0.417439 -2.995673 22.211560 -0.000001 0.000000 0.000002 2.698241 -11.184238 32.166089 0.472430 -2.116943 18.440362 0.000001 0.000000 0.000003 4.305394 -16.260329 34.920975 0.139788 -1.666338 18.434710 -0.000002 0.000002 0.000004 -0.000001 -0.000000 -0.000001 0.000001 -0.000001 -0.000001 0.000001 -0.000001 -0.000001 0.000001 -0.000001 -0.000001 0.000001 -0.000001 -0.000001 0.000001 -0.000001 -0.000001 0.000001 -0.000001 -0.000001 -0.000000 -0.000001 -0.000001 -0.000000 -0.000001 -0.000001 0.000000 0.000001 0.000003 -0.000000 0.000000 -0.000000 
0.017000 69.792946 9.093259 -0.068943 -6.043659 -14.696204 0.000000 0.000000 0.000000 -66.445398 11.318087 2.454732 103.316173 11.047405 0.591088 -0.502796 0.600143 17.428863 0.000001 -0.000000 -0.000000 0.000005 0.000001 0.000002 -0.000004 -0.000001 -0.000000 -17.713732 2.643713 -5.799149 62.175711 7.785119 0.792689 -43.301924 0.863393 11.184822 -0.000000 -0.000000 -0.000000 0.000001 0.000000 -0.000000 -0.000000 0.000001 -0.000002 5.594697 2.756619 -0.904159 4.641763 1.992369 1.349662 4.668626 1.846767 1.438062 0.764417 1.195515 1.133491 -15.802201 22.159423 4.754598 -0.000000 0.000001 -0.000001 -0.000000 0.000001 -0.000001 -0.000000 0.000001 -0.000001 -0.000000 0.000001 -0.000001 -0.000000 0.000001 -0.000001 -0.000000 0.000001 -0.000001 -0.000000 0.000001 -0.000001 -0.000000 0.000001 -0.000001 -0.000000 0.000001 -0.000001 -0.000000 0.000001 -0.000001 -0.000000 0.000001 -0.000001 -0.000000 0.000001 -0.000001 -0.000000 0.000001 -0.000001 -0.000000 0.000001 -0.000001 -0.000000 0.000001 -0.000001 -0.000000 0.000001 -0.000001 -0.000000 0.000001 -0.000001 -0.000000 0.000001 -0.000001 -0.000000 0.000001 -0.000001 0.417703 0.977522 -5.230731 51.088118 -19.833370 -55.708570 -0.000019 -63.791549 0.000002 -19.494465 -33.921376 26.202691 5.358054 -0.141375 9.666158 3.545755 27.155808 3.560562 0.000001 0.000001 -0.000002 -1.578831 0.825918 -19.703486 0.405080 2.870987 -21.069214 0.000000 0.000001 0.000001 0.409498 7.162235 -25.647937 0.416492 2.993228 -22.185347 -0.000003 0.000000 -0.000005 2.386870 10.570852 -32.882351 0.471660 2.115274 -18.422009 -0.000001 -0.000003 -0.000004 2.967918 13.388260 -36.938899 0.139970 1.667042 -18.441905 0.000002 0.000003 0.000002 -0.000000 0.000001 0.000001 0.552491 2.485359 8.941594 -15.548121 21.166652 54.791518 0.000031 101.079143 -0.000089 -18.201872 23.757814 -3.922297 0.789362 -8.211541 -4.825404 0.020100 -13.361252 -9.371043 0.000001 0.000001 -0.000000 -1.070480 -2.247360 17.231252 0.405442 -2.871961 21.079318 -0.000003 -0.000002 0.000001 0.438995 -7.256201 26.595138 0.417442 -2.995667 22.211562 0.000004 -0.000003 -0.000001 2.698242 -11.184237 32.166089 0.472427 -2.116942 18.440365 -0.000001 -0.000001 -0.000003 4.305392 -16.260331 34.920975 0.139786 -1.666339 18.434711 -0.000000 -0.000001 0.000001 0.000002 0.000000 0.000000 0.000001 -0.000000 -0.000000 0.000001 -0.000000 -0.000000 0.000001 -0.000000 -0.000000 0.000001 -0.000000 -0.000000 0.000001 -0.000000 -0.000000 0.000001 -0.000000 -0.000000 -0.000001 -0.000000 -0.000001 -0.000001 -0.000000 -0.000001 -0.000000 0.000000 0.000001 0.000000 0.000000 0.000000 
0.563887 69.786903 16.333324 0.142957 -3.875259 -14.286827 0.000000 0.000000 0.000000 -70.780294 9.994714 0.179214 94.824875 10.679864 0.683389 -1.913660 2.069641 16.789297 -0.000002 0.000000 -0.000000 0.000001 0.000000 -0.000002 -0.000001 0.000000 -0.000001 -9.149050 0.855965 -8.205507 58.894010 6.350457 0.950227 -42.504687 2.285095 14.370149 -0.000000 0.000000 0.000000 -0.000003 -0.000002 -0.000002 -0.000001 -0.000000 -0.000001 5.300659 4.766787 -0.971674 4.448705 3.149790 1.037702 4.488398 3.024020 1.166610 1.152618 0.559720 1.495088 -15.349720 17.467121 4.353242 -0.000000 0.000001 -0.000000 -0.000000 0.000001 -0.000000 -0.000000 0.000001 -0.000000 -0.000000 0.000001 -0.000000 -0.000000 0.000001 -0.000000 -0.000000 0.000001 -0.000000 -0.000000 0.000001 -0.000000 -0.000000 0.000001 -0.000000 -0.000000 0.000001 -0.000000 -0.000000 0.000001 -0.000000 -0.000000 0.000001 -0.000000 -0.000000 0.000001 -0.000000 -0.000000 0.000001 -0.000000 -0.000000 0.000001 -0.000000 -0.000000 0.000001 -0.000000 -0.000000 0.000001 -0.000000 -0.000000 0.000001 -0.000000 -0.000000 0.000001 -0.000000 -0.000000 0.000001 -0.000000 0.360098 0.455522 -3.526978 59.840401 -20.330459 -53.492928 -0.000023 -68.582162 -0.000044 -20.234692 -34.438005 25.571395 5.358057 -0.141369 9.666157 3.545756 27.155809 3.560564 -0.000001 0.000001 -0.000001 -1.578829 0.825926 -19.703486 0.405080 2.870982 -21.069213 0.000001 -0.000001 -0.000002 0.409502 7.162240 -25.647943 0.416492 2.993234 -22.185342 0.000001 -0.000003 0.000003 2.386873 10.570856 -32.882351 0.471655 2.115281 -18.422007 0.000000 0.000003 0.000001 2.967918 13.388264 -36.938899 0.139967 1.667043 -18.441905 -0.000001 -0.000003 0.000000 0.000001 0.000001 0.000003 0.572464 3.368494 7.197853 -23.014561 20.036259 54.517235 0.000071 105.501773 -0.000070 -15.360235 23.077283 -5.389268 0.789361 -8.211543 -4.825403 0.020098 -13.361254 -9.371043 -0.000000 -0.000002 -0.000000 -1.070478 -2.247353 17.231251 0.405440 -2.871961 21.079314 0.000001 -0.000003 0.000002 0.439003 -7.256192 26.595134 0.417437 -2.995671 22.211563 -0.000001 -0.000001 -0.000002 2.698241 -11.184233 32.166089 0.472428 -2.116945 18.440365 -0.000004 -0.000001 0.000001 4.305399 -16.260322 34.920975 0.139790 -1.666342 18.434710 -0.000004 -0.000001 -0.000001 -0.000001 -0.000003 -0.000003 -0.000002 0.000000 0.000000 -0.000002 0.000000 0.000000 -0.000002 0.000000 0.000000 -0.000002 0.000000 0.000000 -0.000002 0.000000 0.000000 -0.000002 0.000000 0.000000 -0.000002 0.000000 -0.000001 -0.000002 0.000000 -0.000001 -0.000000 0.000000 0.000001 0.000000 0.000000 0.000000 
1.134968 69.799072 23.806669 0.450813 -1.554515 -13.844997 -0.000000 -0.000000 -0.000000 -72.844063 8.757213 -2.585575 84.461853 10.606279 0.773031 -4.514088 3.400991 16.243751 0.000001 0.000000 -0.000000 0.000002 0.000000 -0.000001 0.000000 -0.000000 -0.000001 -1.368570 -0.752064 -10.147251 54.987339 5.661566 1.072587 -36.455513 3.636895 18.145917 0.000001 -0.000000 0.000000 0.000001 0.000001 0.000000 0.000000 -0.000000 0.000001 4.902951 6.843605 -1.228880 4.164441 4.140926 0.752281 4.210765 4.034414 0.914159 1.524940 -0.077953 1.938762 -14.628455 12.752695 3.958221 0.000000 0.000002 -0.000000 0.000000 0.000002 -0.000000 0.000000 0.000002 -0.000000 0.000000 0.000002 -0.000000 0.000000 0.000002 -0.000000 0.000000 0.000002 -0.000000 0.000000 0.000002 -0.000000 0.000000 0.000002 -0.000000 0.000000 0.000002 -0.000000 0.000000 0.000002 -0.000000 0.000000 0.000002 -0.000000 0.000000 0.000002 -0.000000 0.000000 0.000002 -0.000000 0.000000 0.000002 -0.000000 0.000000 0.000002 -0.000000 0.000000 0.000002 -0.000000 0.000000 0.000002 -0.000000 0.000000 0.000002 -0.000000 0.000000 0.000002 -0.000000 0.346236 -0.354004 -1.729436 67.332497 -19.844177 -52.035147 -0.000041 -73.056243 -0.000025 -21.063542 -34.966556 24.978838 5.358055 -0.141370 9.666159 3.545754 27.155809 3.560563 -0.000000 0.000002 0.000000 -1.578831 0.825923 -19.703484 0.405079 2.870979 -21.069216 -0.000001 -0.000001 0.000000 0.409499 7.162241 -25.647939 0.416491 2.993234 -22.185344 -0.000001 0.000000 0.000002 2.386871 10.570852 -32.882351 0.471654 2.115284 -18.422005 0.000000 -0.000001 -0.000001 2.967917 13.388267 -36.938899 0.139968 1.667043 -18.441905 0.000001 -0.000001 0.000004 -0.000000 0.000002 0.000002 0.591752 3.455528 5.803165 -28.885860 20.146536 54.610115 -0.000038 109.781310 0.000048 -11.356453 22.070665 -7.051888 0.789358 -8.211543 -4.825398 0.020100 -13.361256 -9.371039 -0.000000 0.000003 -0.000002 -1.070478 -2.247353 17.231252 0.405446 -2.871956 21.079311 -0.000000 0.000000 -0.000000 0.438998 -7.256197 26.595143 0.417435 -2.995671 22.211560 0.000003 -0.000002 -0.000002 2.698239 -11.184238 32.166096 0.472428 -2.116944 18.440367 -0.000000 -0.000003 0.000001 4.305387 -16.260331 34.920971 0.139786 -1.666337 18.434710 -0.000001 -0.000001 0.000000 -0.000001 -0.000000 0.000001 0.000003 0.000001 -0.000000 0.000003 0.000001 -0.000000 0.000003 0.000001 -0.000000 0.000003 0.000001 -0.000000 0.000003 0.000001 -0.000000 0.000002 0.000001 0.000000 0.000002 0.000001 0.000000 0.000002 0.000001 0.000000 0.000000 0.000000 0.000001 -0.000000 -0.000000 -0.000000 
